<svg width="20" height="20" viewBox="0 0 20 20" fill="none" xmlns="http://www.w3.org/2000/svg">
<path id="box" d="M0.614445 17.6601L5.05889 19.8821C5.21314 19.959 5.38317 19.9991 5.55556 19.9991C5.72795 19.9991 5.89798 19.959 6.05222 19.8821L10 17.9078L13.9478 19.8809C14.1017 19.959 14.2718 19.9998 14.4443 20C14.6169 20.0002 14.7871 19.9598 14.9411 19.8821L19.3856 17.6601C19.7622 17.4712 20 17.0868 20 16.6657V11.1107C20 10.6897 19.7622 10.3053 19.3856 10.1164L15.5556 8.20216V3.33378C15.5556 2.91271 15.3178 2.52831 14.9411 2.33944L10.4967 0.11745C10.3423 0.0402129 10.1721 0 9.99944 0C9.82683 0 9.65659 0.0402129 9.50222 0.11745L5.05778 2.33944C4.68222 2.52831 4.44445 2.91271 4.44445 3.33378V8.20216L0.614445 10.1175C0.429748 10.2095 0.274387 10.3512 0.165837 10.5267C0.0572873 10.7022 -0.000145112 10.9044 2.75346e-07 11.1107V16.6657C2.75346e-07 17.0868 0.237778 17.4712 0.614445 17.6601ZM5.55556 10.1309L8.07111 11.3885L4.83444 13.0072L2.31889 11.7496L5.55556 10.1309ZM10 7.35336L13.3333 5.68687V8.20216L10 9.86866V7.35336ZM16.96 11.3885L13.7578 12.9894L11.2422 11.7318L14.4444 10.1309L16.96 11.3885ZM5.55556 17.6456L5.48667 17.6112V15.1659L8.88889 13.4638V15.9791L5.55556 17.6456ZM14.4444 17.6456V15.1303L17.7778 13.4638V15.9791L14.4444 17.6456ZM10 2.35388L12.5156 3.61153L9.31333 5.21247L6.79778 3.95483L10 2.35388Z" fill="white"/>
</svg>
