<svg width="20" height="20" viewBox="0 0 20 20" fill="none" xmlns="http://www.w3.org/2000/svg">
<path id="fire" d="M15.1052 2.43283C13.7189 1.34057 12.0172 0.512543 10.1368 0.0153336C10.0391 -0.00592477 9.93535 -0.00506211 9.83822 0.0178174C9.74109 0.0406969 9.65468 0.0846146 9.58945 0.144267C9.52525 0.20442 9.48513 0.277498 9.47392 0.354702C9.46272 0.431905 9.4809 0.509942 9.52629 0.579417C10.6403 2.15673 10.9516 3.99407 10.4 5.73675C10.3909 5.76378 10.3706 5.78782 10.3421 5.80526C10.3136 5.8227 10.2785 5.83259 10.2421 5.83345C10.1473 5.83345 10.1263 5.83345 10.1263 5.77704C9.32252 4.28609 7.96923 3.00649 6.23156 2.09438C6.14297 2.04966 6.03878 2.02648 5.93266 2.02789C5.82655 2.0293 5.72348 2.05524 5.63697 2.1023C5.55046 2.14935 5.48455 2.21533 5.44789 2.29158C5.41124 2.36782 5.40554 2.45077 5.43156 2.52953C6.05261 4.39101 4.83157 5.51112 3.32631 6.92938C1.82105 8.34765 0 10.0077 0 12.683C0.0369766 14.3926 0.822802 16.0431 2.23146 17.3699C3.64012 18.6967 5.58999 19.6229 7.7684 20C7.32432 19.7601 6.96105 19.4428 6.7085 19.0743C6.45595 18.7059 6.32135 18.2967 6.31577 17.8807C6.31577 13.5775 9.99997 12.5058 9.99997 12.5058C10.7368 15.3262 13.6842 15.9708 13.6842 17.8807C13.6789 18.2919 13.5476 18.6965 13.3007 19.0618C13.0539 19.4271 12.6985 19.7429 12.2631 19.9839C13.8074 19.7274 15.2504 19.1944 16.4736 18.4286C17.5812 17.7257 18.4718 16.8438 19.0814 15.8463C19.6911 14.8487 20.0048 13.7602 19.9999 12.6589C19.9999 7.26783 17.3368 4.12508 15.1052 2.43283Z" fill="white"/>
</svg>
