<svg width="20" height="10" viewBox="0 0 20 10" fill="none" xmlns="http://www.w3.org/2000/svg">
<g id="infinite" clip-path="url(#clip0_44_11)">
<g id="Icons">
<g id="Rounded">
<g id="Places">
<g id="-Round-/-Places-/-all_inclusive">
<g id="Group">
<path id="&#240;&#159;&#148;&#185;-Icon-Color" fill-rule="evenodd" clip-rule="evenodd" d="M16.85 0.716667C15.1833 0.216667 13.4667 0.683333 12.3583 1.79167L10 3.88333L8.73333 5H8.74167L6.5 6.99167C5.825 7.66667 4.875 7.95 3.9 7.75833C2.85833 7.55 2 6.71667 1.75833 5.68333C1.325 3.825 2.725 2.18333 4.5 2.18333C5.25833 2.18333 5.96667 2.475 6.53333 3.04167L6.925 3.38333C7.24167 3.66667 7.71667 3.66667 8.03333 3.38333C8.40833 3.05 8.40833 2.46667 8.03333 2.13333L7.68333 1.83333C6.83333 0.983333 5.7 0.516666 4.5 0.516666C2.01667 0.516666 0 2.53333 0 5C0 7.46667 2.01667 9.48333 4.5 9.48333C5.7 9.48333 6.83333 9.01667 7.64167 8.20833L10 6.125L10.0083 6.13333L11.2667 5H11.2583L13.5 3.00833C14.175 2.33333 15.125 2.05 16.1 2.24167C17.1417 2.45 18 3.28333 18.2417 4.31667C18.675 6.175 17.275 7.81667 15.5 7.81667C14.75 7.81667 14.0333 7.525 13.4667 6.95833L13.0667 6.60833C12.75 6.325 12.275 6.325 11.9583 6.60833C11.5833 6.94167 11.5833 7.525 11.9583 7.85833L12.3083 8.16667C13.1583 9.00833 14.2833 9.475 15.4917 9.475C18.2167 9.475 20.375 7.05833 19.9333 4.26667C19.6833 2.60833 18.4583 1.19167 16.85 0.716667Z" fill="white"/>
</g>
</g>
</g>
</g>
</g>
</g>
<defs>
<clipPath id="clip0_44_11">
<rect width="20" height="10" fill="white"/>
</clipPath>
</defs>
</svg>
