<svg width="15" height="15" viewBox="0 0 15 15" fill="none" xmlns="http://www.w3.org/2000/svg">
<g id="playstation">
<path id="Vector" d="M5.59082 1.87109V12.4287L7.88086 13.1289V4.28809C7.88086 4.03359 7.88081 3.9068 8.00781 3.7793C8.07131 3.6523 8.1982 3.65232 8.3252 3.71582C8.6432 3.84282 8.83496 4.09745 8.83496 4.60645V8.10352C9.59796 8.48502 10.2332 8.48502 10.7422 8.10352C11.2512 7.72202 11.5059 7.15029 11.5059 6.19629C11.5064 5.17879 11.3151 4.54268 10.8701 4.03418C10.4886 3.52518 9.78949 3.07972 8.77149 2.76172C7.49949 2.38022 6.41782 2.06209 5.59082 1.87109ZM4.95508 8.48633L2.0293 9.50391L1.58496 9.69434C0.885461 10.0123 0.503906 10.3304 0.503906 10.6484C0.567406 11.0299 0.694438 11.5394 1.64844 11.8574C2.53894 12.1754 3.23853 12.3024 5.01953 11.7939V10.6484C3.30153 11.2204 3.04747 11.1573 2.79297 11.0303C2.53847 10.9033 2.53806 10.7754 2.60156 10.7119C2.79256 10.5849 3.49219 10.3301 3.49219 10.3301L4.95508 9.82129V8.48633ZM11.4268 8.98145C11.2201 8.97449 11.0134 8.97827 10.8066 8.99414C10.1071 8.99414 9.47053 9.1215 8.70703 9.3125V10.6484L10.1064 10.1387L10.8691 9.88477C10.8691 9.88477 11.1879 9.82131 11.3789 9.75781C11.6969 9.69431 12.0781 9.82129 12.0781 9.82129C12.2691 9.82129 12.3965 9.88422 12.3965 10.0117C12.46 10.1387 12.3327 10.2031 12.0146 10.3301L11.3154 10.585L8.77149 11.5381V12.874L9.91602 12.4922L13.0957 11.3477L13.4775 11.1562C14.2405 10.9017 14.5586 10.5836 14.4951 10.2021C14.4951 9.82115 14.0501 9.567 13.2871 9.3125C12.6669 9.12162 12.0469 9.0023 11.4268 8.98145Z" fill="#CDCDCD"/>
</g>
</svg>
