<svg width="15" height="15" viewBox="0 0 15 15" fill="none" xmlns="http://www.w3.org/2000/svg">
<g id="xbox" clip-path="url(#clip0_10_13)">
<path id="Vector" d="M7.5 0.600006C6.2127 0.600006 4.98557 0.96024 3.96797 1.59024C3.90227 1.61214 3.78875 1.69855 3.68555 1.79005C4.59905 1.06435 6.71152 2.51789 7.32832 2.95079C7.43212 3.02369 7.56847 3.02369 7.67227 2.95079C8.28907 2.51789 10.4015 1.06405 11.315 1.79005C11.2118 1.69855 11.098 1.61214 11.0326 1.59024C10.0147 0.96024 8.7873 0.600006 7.5 0.600006ZM3.3 2.40001C2.8209 2.40001 2.4709 2.79024 2.4709 2.79024C1.3333 4.02024 0.615234 5.67001 0.615234 7.50001C0.615234 11.31 3.6984 14.4 7.5 14.4C9.5055 14.4 11.3316 13.53 12.5889 12.15C12.5889 12.15 12.4392 11.2499 11.5113 9.92989C10.4736 8.36479 8.37153 6.39358 7.69863 5.78848C7.58373 5.68528 7.41244 5.68584 7.29844 5.79024C6.79144 6.25434 5.48322 7.55334 5.19492 7.89024C4.50642 8.61024 2.5906 10.8899 2.4709 12.1799C2.4709 12.1799 2.05159 11.1601 2.97949 8.82012C3.55699 7.41432 5.35061 5.3244 6.22031 4.4127C6.33581 4.2918 6.33304 4.10074 6.21094 3.98614C5.92294 3.71644 5.25158 3.24379 4.64648 2.87989C4.22768 2.60989 3.7491 2.43001 3.3 2.40001ZM11.6068 2.40001C11.4109 2.40001 10.1382 2.80285 8.79902 3.98965C8.67242 4.10185 8.66736 4.29765 8.78496 4.41915C9.27006 4.92045 10.5968 6.20442 11.3918 7.47012C12.3797 9.09012 12.9781 10.38 12.6187 12.15C13.7263 10.92 14.4152 9.30001 14.4152 7.50001C14.3852 5.70001 13.6966 4.05012 12.559 2.82012C12.529 2.79012 12.499 2.75989 12.4693 2.72989C12.2299 2.45989 11.8762 2.40001 11.6068 2.40001Z" fill="#CDCDCD"/>
</g>
<defs>
<clipPath id="clip0_10_13">
<rect width="15" height="15" fill="white"/>
</clipPath>
</defs>
</svg>
