<svg width="20" height="20" viewBox="0 0 20 20" fill="none" xmlns="http://www.w3.org/2000/svg">
<g id="year">
<path id="Vector" d="M13.2758 0.766664C13.2758 0.340197 13.6959 0 14.2152 0C14.7362 0 15.1547 0.346708 15.1547 0.766664V4.13445C15.1547 4.56092 14.7346 4.90111 14.2152 4.90111C13.6942 4.90111 13.2758 4.55441 13.2758 4.13445V0.766664ZM3.45164 11.8255H5.3761C5.75383 11.8255 6.06154 11.8776 6.29437 11.9801C6.52719 12.0827 6.72094 12.2308 6.87398 12.4229C7.0254 12.6166 7.13611 12.8396 7.20449 13.0951C7.2745 13.3507 7.30707 13.6209 7.30707 13.9058C7.30707 14.3534 7.25659 14.7001 7.15402 14.9475C7.05308 15.1949 6.91143 15.4 6.72908 15.5677C6.54836 15.7337 6.35298 15.846 6.14621 15.9014C5.86291 15.9779 5.60567 16.0153 5.37447 16.0153H3.45164V11.8255ZM4.74438 12.7728V15.0598H5.06187C5.33377 15.0598 5.52589 15.0289 5.64149 14.9703C5.75546 14.9101 5.845 14.8059 5.91013 14.6561C5.97525 14.5064 6.00782 14.2639 6.00782 13.9285C6.00782 13.4858 5.93618 13.1814 5.78965 13.0186C5.64474 12.8542 5.40378 12.7728 5.06675 12.7728H4.74438ZM8.19114 11.8255H11.6542V12.7208H9.48877V13.3881H11.4963V14.2427H9.49039V15.068H11.7193V16.0153H8.19114V11.8255ZM15.4119 14.2997L16.5467 14.6415C16.4702 14.9589 16.3514 15.2258 16.1853 15.4375C16.0208 15.6507 15.819 15.8118 15.5747 15.9193C15.3321 16.0267 15.0228 16.082 14.6467 16.082C14.1908 16.082 13.8196 16.0153 13.5298 15.8835C13.2416 15.7516 12.9925 15.5172 12.7825 15.1852C12.5725 14.8531 12.4683 14.425 12.4683 13.9074C12.4683 13.2156 12.6522 12.6833 13.0218 12.3106C13.3914 11.9394 13.9124 11.7523 14.5881 11.7523C15.1156 11.7523 15.5308 11.8581 15.8336 12.0713C16.1348 12.2845 16.3595 12.6117 16.506 13.0544L15.3647 13.3067C15.324 13.1798 15.2833 13.087 15.2393 13.0284C15.1661 12.9307 15.0782 12.8542 14.974 12.8005C14.8681 12.7468 14.7509 12.7208 14.6223 12.7208C14.3276 12.7208 14.1029 12.838 13.9466 13.074C13.8294 13.2481 13.7691 13.5232 13.7691 13.896C13.7691 14.3599 13.8391 14.6773 13.9808 14.8498C14.1224 15.0208 14.3194 15.107 14.5751 15.107C14.8225 15.107 15.0098 15.037 15.1368 14.8987C15.2638 14.7652 15.3549 14.5634 15.4119 14.2997ZM4.80788 0.766664C4.80788 0.340197 5.22794 0 5.74731 0C6.26832 0 6.68675 0.346708 6.68675 0.766664V4.13445C6.68675 4.56092 6.26669 4.90111 5.74731 4.90111C5.22631 4.90111 4.80788 4.55441 4.80788 4.13445V0.766664ZM1.23087 7.17669H18.7528V3.68845C18.7528 3.55823 18.7024 3.43615 18.6161 3.35639C18.5298 3.27012 18.4142 3.21966 18.2839 3.21966H16.7682C16.4783 3.21966 16.2472 2.79157 16.2472 2.50183C16.2472 2.21209 16.4783 1.98096 16.7682 1.98096H18.4826C18.9026 1.98096 19.2771 2.15512 19.5523 2.42858C19.8274 2.70367 20 3.08619 20 3.49801V18.4829C20 18.9029 19.8258 19.2773 19.5523 19.5524C19.2771 19.8275 18.8945 20 18.4826 20H1.51905C1.09899 20 0.72452 19.8258 0.449365 19.5524C0.17421 19.2789 0 18.8948 0 18.4829V3.49801C0 3.07805 0.17421 2.70204 0.447737 2.42858C0.722892 2.1535 1.1055 1.98096 1.51742 1.98096H3.35396C3.64376 1.98096 3.87496 2.21209 3.87496 2.50183C3.87496 2.79157 3.64376 3.21966 3.35396 3.21966H1.71605C1.5858 3.21966 1.46369 3.27012 1.37577 3.35639C1.28948 3.44266 1.23901 3.55823 1.23901 3.69659V7.18483L1.23087 7.17669ZM18.7545 8.61073H1.23087V18.2795C1.23087 18.4097 1.28134 18.5318 1.36763 18.6197C1.45392 18.7059 1.56952 18.7564 1.70791 18.7564H18.2758C18.4061 18.7564 18.5282 18.7059 18.6161 18.6197C18.7024 18.5334 18.7528 18.4178 18.7528 18.2795V8.61073H18.7545ZM8.19928 3.21152C7.90948 3.21152 7.67828 2.78343 7.67828 2.49369C7.67828 2.20396 7.90948 1.97282 8.19928 1.97282H11.6981C11.988 1.97282 12.2191 2.20396 12.2191 2.49369C12.2191 2.78343 11.988 3.21152 11.6981 3.21152H8.19928Z" fill="white"/>
</g>
</svg>
